<svg xmlns="http://www.w3.org/2000/svg" xmlns:xlink="http://www.w3.org/1999/xlink" version="1.1" x="0px" y="0px" viewBox="0 0 500 625" enable-background="new 0 0 500 500" xml:space="preserve"><g><path fill="#000000" d="M464,462.5H39v-425h425V462.5z M64,437.5h375v-375H64V437.5z"/></g><g><rect x="51.5" y="137.5" fill="#000000" width="400" height="25"/></g><g><rect x="101.5" y="87.5" fill="#000000" width="50" height="25"/></g><g><rect x="201.5" y="87.5" fill="#000000" width="200" height="25"/></g><g><rect x="101.5" y="200" fill="#000000" width="75" height="125"/></g><g><rect x="101.5" y="350" fill="#000000" width="75" height="100"/></g><g><rect x="214" y="200" fill="#000000" width="75" height="73"/></g><g><rect x="214" y="301" fill="#000000" width="75" height="99"/></g><g><rect x="214" y="425" fill="#000000" width="75" height="25"/></g><g><rect x="326.5" y="200" fill="#000000" width="75" height="100"/></g><g><rect x="326.5" y="325" fill="#000000" width="75" height="50.448"/></g><g><rect x="326.5" y="400" fill="#000000" width="75" height="50"/></g><text x="0" y="515" fill="#000000" font-size="5px" font-weight="bold" font-family="'Helvetica Neue', Helvetica, Arial-Unicode, Arial, Sans-serif">Created by Eugene Dobrik</text><text x="0" y="520" fill="#000000" font-size="5px" font-weight="bold" font-family="'Helvetica Neue', Helvetica, Arial-Unicode, Arial, Sans-serif">from the Noun Project</text></svg>